<svg xmlns="http://www.w3.org/2000/svg" viewBox="0 0 993 157" xml:space="preserve" enable-background="new 0 0 993 157">
  <defs>
    <filter id="a23423423423" filterUnits="userSpaceOnUse" x="0" y=".3" width="993" height="156.7">
      <feColorMatrix values="1 0 0 0 0 0 1 0 0 0 0 0 1 0 0 0 0 0 1 0"/>
    </filter>
  </defs>
  <mask maskUnits="userSpaceOnUse" x="0" y=".3" width="993" height="156.7" id="b23434324234">
    <g filter="url(#a23423423423)">
      <path d="M.1.3H993V157H.1V.3z" fill-rule="evenodd" clip-rule="evenodd" fill="#fff"/>
    </g>
  </mask>
  <path d="M0 157h902.5L993 .3H0V157" mask="url(#b23434324234)" fill-rule="evenodd" clip-rule="evenodd" fill="#fbce28"/>
  <path d="M171.9 57c-3.7-2.8-7.8-4.1-12.8-4.1-5.2 0-9.6 3.3-9.6 7.3 0 2.3 1.4 4.2 5.3 5.6l6.6 2.2c7.5 2.5 11.4 6.5 11.4 13 0 12.5-10.7 22.8-28 22.8-8.1 0-14.2-2.2-19-5.2l6.1-8.9c4.8 2.8 9.1 4.5 14.9 4.5 7.3 0 12.1-3.8 12.1-9.5 0-2.9-2-4.8-6.1-6.2l-6.1-2.1c-6.6-2.2-10.5-5.4-10.5-12.1 0-11.6 11-21.1 24.6-21.1 7.1 0 13.8 2.2 18 5.8l-6.9 8m31 10.8h-7.4L191 89.2c-.3 1.2-.4 2.5-.4 3.7 0 2.3 1.2 3.1 3.7 3.1 1 0 2.9-.3 4.1-.8v6.7c-3.2 1.2-6.6 1.8-9.5 1.8-6.4 0-10-3.2-10-7.3 0-1.5.2-3.5.6-5.5l4.9-23.1h-4.2l1.7-7.6h4.2c.8-4.2 1.4-6.9 2.6-10l11.7-2.8c-1.3 3.9-2.5 8.6-3.4 12.9h9.9l-4 7.5m39.9 4.9c.7-3.2 1.8-7.9 2.7-10.5-3.6-2.1-9.1-2.9-14.1-2.9-7.1 0-12.3 2-16.9 6.6-5.1 5.1-9 14.1-9 24.3 0 8.8 4 13.5 11.7 13.5 4.6 0 8.1-1.7 11.3-5.1.3 1.7 1.2 3.9 3.2 5.2l9.2-6.9c-2-2.2-2.3-4.7-1.6-8.3l3.5-15.9zm-14.3 16c-1.2 3.1-4.7 6.6-8.2 6.6-2.4 0-3.4-1.7-3.4-5.5 0-5.6 1.7-14 5.2-18.2 3-3.5 5-3.7 7.8-3.7 1 0 2.5.3 3 .7l-4.4 20.1zm36.2-29.9c.7 1.4 1.2 5.1 1.1 6.9 3.6-3.8 8.1-6.4 14.3-6.4 5.4 0 8.6 3.2 8.6 8.4 0 1.8-.3 4.2-.7 6l-6.1 29h-11l5.9-27.6c.3-1.7.6-2.9.6-3.8 0-2.1-.9-2.7-2.9-2.7-2.7 0-5.8 1.7-9.3 6.4l-5.9 27.7h-11l6.1-28.6c1-4.7.9-8.3 0-11.2l10.3-4.1m48.7-4.8-6.7 31.5c-1.1 5-1.4 7.1-1.4 8.2 0 1.6.7 2.4 2.2 2.4.4 0 .8 0 1.2-.2l.5 6.6c-2 .7-4.5 1.2-6.9 1.2-6 0-8.8-3.2-8.8-7.6 0-1.5.6-4.7 1.3-7.7l6.7-31.7c1.2-5.6 1.8-9.5 1-12.3l11.8-3.6c.3 1.9.3 7.8-.9 13.2m19.5 31.5c14.1 0 21.5-6.6 21.5-14.6 0-8.3-6.1-11.6-14.4-11.6-5.7 0-10.4 1.6-14.6 5.6-5.6 5.5-9.5 14.5-9.5 23.3 0 10.3 6 15.6 16.1 15.6 6 0 11.5-1.8 17.3-5.8l-2.8-7c-4 2.8-8 4.5-11.8 4.5-4.6 0-7.1-2-7.1-6.8 0-1.1.4-3.8.4-3.8s2 .6 4.9.6zm5.8-18.1c3.3 0 4.5 1.8 4.5 4.4 0 4.2-5.6 5.9-10.4 5.9-1.5 0-3.2-.4-3.2-.4 1.7-7.4 4.9-9.9 9.1-9.9zm32.6-7.9 2.1 24.8c.2 2.6.3 8.8.3 8.8s2.9-7.4 5.7-12.7l10.7-20.3H402l-24.6 43.2c-4.6 8.2-7.6 11.8-11.1 14-3.2 2.1-7.1 3.4-11.1 3.9l-2.2-7.5c2.6-.6 5.6-1.5 7.5-2.6 3.4-2.1 4.7-4 7.4-8.5h-3.1c-.2-3.2-.6-8.3-1.1-12l-3.8-29.9 11.4-1.2m64.3 12.6c8.5-2.5 12.1-9 12.1-14.6 0-8.3-6.3-12.5-15-12.5h-20.5l-12.3 57.7h20.9c9 0 13.8-1.8 18-6.1 3.9-4 5.4-9.6 5.4-13.3.1-5.4-3.3-10.1-8.6-11.2zm-8.5 19.4c-1.5 1-3.6 1.7-6 1.7h-7.5l3.3-15.6h7.2c5.1 0 7.4 1.3 7.4 5.4 0 3.2-1.8 6.8-4.4 8.5zm4.6-25.1c-1.4 1-2.9 1.7-6.1 1.7h-6.8l2.8-13.2h7.2c4.8 0 6.4 1.5 6.4 5.1 0 2.8-1.6 5.1-3.5 6.4zm39-12.4L464 85.5c-1.1 5-1.4 7.1-1.4 8.2 0 1.6.7 2.4 2.2 2.4.4 0 .8 0 1.2-.2l.5 6.6c-2 .7-4.5 1.2-6.9 1.2-6 0-8.8-3.2-8.8-7.6 0-1.5.6-4.7 1.2-7.7l6.7-31.7c1.2-5.6 1.8-9.5 1-12.3l11.8-3.6c.3 1.9.3 7.8-.8 13.2m40.9 18.7c.7-3.2 1.8-7.9 2.7-10.5-3.6-2.1-9.1-2.9-14.1-2.9-7.1 0-12.3 2-16.9 6.6-5.1 5.1-9 14.1-9 24.3 0 8.8 4 13.5 11.7 13.5 4.6 0 8.1-1.7 11.3-5.1.3 1.7 1.3 3.9 3.2 5.2l9.2-6.9c-2-2.2-2.3-4.7-1.6-8.3l3.5-15.9zm-14.3 16c-1.2 3.1-4.7 6.6-8.2 6.6-2.4 0-3.4-1.7-3.4-5.5 0-5.6 1.7-14 5.2-18.2 3-3.5 5.1-3.7 7.8-3.7 1 0 2.5.3 3 .7l-4.4 20.1zM547.1 71c-1.8-2.1-4.2-3.2-6.3-3.2-2 0-3.7.8-5.2 2.5-3.1 3.5-5.9 12.3-5.9 18.8 0 4.4 2.1 6.3 5.1 6.3 3.1 0 6.1-1.7 9.3-4.2l3.7 6.9c-4.6 3.6-9.4 5.6-15.6 5.6-9.4 0-14.6-5.5-14.6-14.6 0-10.5 4.9-20.2 10.8-25.1 3.8-3.2 8-5.1 14-5.1 3.9 0 8.2 1.6 11.3 5.1l-6.6 7m28.6-30.2c.6 2.1.5 7.1-1.4 16l-9.8 45.9h-11.1l10-46.7c1.2-5.9 1.4-9.3.8-11.7-.1 0 11.5-3.5 11.5-3.5zM598 60.2l-17.4 18.4 11.5 24.1H579l-9.1-24.1 14.3-18.4H598zm41.8 30.5c3-4.2 5.3-10.6 6.3-16.3h-9.3c-.2 1.6-1.3 6.6-2.8 9l-7.6-9.2 1.1-.5c10.5-4.8 12.8-9.6 12.8-16 0-6.1-5.4-10.3-14-10.3-11.2 0-19.8 7.5-19.8 16.7 0 3.6.9 6.4 4.3 9.6-9.1 3.8-14 10-14 16.9 0 7.6 6.4 13.3 17.9 13.3 8.1 0 13-2 17-4.8l2.8 3.7h14.7l-9.4-12.1zm-15.2-35.6c2.5 0 4.1 1.7 4.1 4.1 0 3.7-2.8 7.5-7.6 9.4-2.6-3-3.3-4.9-3.3-6.6.1-3.8 3.2-6.9 6.8-6.9zm-7.8 40.6c-5 0-7.8-2.2-7.8-6.1 0-4.2 2.3-7.6 6.4-9.9l10.8 13c-2.1 1.9-5.4 3-9.4 3zm82.7-45.1C695.9 46 690 45 680.3 45H667l-12.3 57.7h14c12.7 0 18.5-2.2 24.6-8.6 7.1-7.6 10.5-19.9 10.5-29.4.1-6.8-1.6-10.7-4.3-14.1zm-14.3 36.6c-2.1 3.2-5.8 6-10.8 6h-5.7l8.3-39.1h5.2c7.7 0 9.2 5.1 9.2 10.4 0 3.1-1.1 14.7-6.2 22.7zm38.7-1.7c14.1 0 21.5-6.6 21.5-14.6 0-8.3-6.1-11.6-14.4-11.6-5.6 0-10.4 1.6-14.6 5.6-5.6 5.5-9.6 14.5-9.6 23.3 0 10.3 6 15.6 16.1 15.6 6 0 11.5-1.8 17.2-5.8l-2.8-7c-4 2.8-7.9 4.5-11.8 4.5-4.7 0-7.1-2-7.1-6.8 0-1.1.4-3.8.4-3.8s2.2.6 5.1.6zm5.9-18.1c3.3 0 4.5 1.8 4.5 4.4 0 4.2-5.6 5.9-10.4 5.9-1.5 0-3.2-.4-3.2-.4 1.7-7.4 4.8-9.9 9.1-9.9zm48.9 3.6c-1.8-2.1-4.2-3.2-6.3-3.2-2 0-3.7.8-5.2 2.5-3.1 3.5-5.9 12.3-5.9 18.8 0 4.4 2.1 6.3 5.1 6.3 3.1 0 6.1-1.7 9.3-4.2l3.7 6.9c-4.6 3.6-9.4 5.6-15.6 5.6-9.5 0-14.6-5.5-14.6-14.6 0-10.5 4.9-20.2 10.8-25.1 3.8-3.2 8-5.1 13.9-5.1 3.9 0 8.2 1.6 11.3 5.1l-6.5 7m28.6-30.2c.6 2.1.5 7.1-1.4 16l-9.8 45.9H785L795 56c1.2-5.9 1.4-9.3.8-11.7l11.5-3.5zm22.3 19.4-17.3 18.4 11.4 24.1h-13.1l-9.1-24.1 14.3-18.4zm15.8 25.3c14.1 0 21.5-6.6 21.5-14.6 0-8.3-6-11.6-14.4-11.6-5.6 0-10.4 1.6-14.6 5.6-5.6 5.5-9.6 14.5-9.6 23.3 0 10.3 6 15.6 16.1 15.6 6 0 11.5-1.8 17.3-5.8l-2.8-7c-4 2.8-8 4.5-11.8 4.5-4.6 0-7.1-2-7.1-6.8 0-1.1.4-3.8.4-3.8s2.1.6 5 .6zm5.9-18.1c3.3 0 4.5 1.8 4.5 4.4 0 4.2-5.6 5.9-10.4 5.9-1.5 0-3.2-.4-3.2-.4 1.7-7.4 4.8-9.9 9.1-9.9zm34.5-8.6c.7 1.4 1.3 4.5 1 6.9 3.7-3.8 7.7-6.5 11.9-6.5 1.6 0 2.3.2 3.8.9l-4.8 9.8c-1-.6-2-.8-3.2-.8-2.2 0-4.6 1.3-8.1 5.8l-5.9 27.8h-11.1l6-28.1c1.2-5.3 1-9 .2-11.8l10.2-4" fill-rule="evenodd" clip-rule="evenodd" fill="#1c1b19"/>
</svg>
